<svg width="972" height="712" viewBox="0 0 972 712" fill="none" xmlns="http://www.w3.org/2000/svg">
<path d="M311.105 199.041L226.768 183.313L119.232 163.937L70.0812 155.152C69.2094 154.991 68.4116 154.517 67.8133 153.805C67.215 153.093 66.8502 152.184 66.7764 151.22C64.3464 117.108 60.0048 90.9306 103.453 104.639C104.663 105.017 105.268 104.521 105.268 103.151C105.235 87.7425 101.736 55.7556 126.652 61.565C127.818 61.8484 128.628 62.5804 129.082 63.7612L129.989 66.2054C130.421 67.3862 131.231 68.012 132.419 68.0828L139.903 68.4016C140.854 68.4488 141.556 68.9211 142.009 69.8185L147.517 80.7288C147.721 81.1235 148.023 81.4485 148.389 81.6674C148.755 81.8864 149.171 81.9906 149.591 81.9686L163.879 81.2601C164.253 81.238 164.612 81.0939 164.907 80.8472C165.202 80.6004 165.42 80.2626 165.532 79.8786C167.627 72.5107 171.59 66.2762 177.422 61.1753C178.455 60.2821 179.719 59.7679 181.034 59.7061C182.349 59.6442 183.649 60.0378 184.748 60.8308C185.847 61.6238 186.688 62.7757 187.153 64.1224C187.618 65.4691 187.682 66.9418 187.337 68.3308C186.689 70.8812 186.959 73.3844 188.147 75.8404C188.432 76.4124 188.863 76.8806 189.389 77.1869C189.915 77.4933 190.511 77.6244 191.104 77.5641C191.697 77.5038 192.261 77.2547 192.726 76.8476C193.191 76.4405 193.536 75.8932 193.72 75.2736L197.575 61.6713C198.029 60.1127 199.001 59.3333 200.491 59.3333H225.342C225.567 59.3307 225.789 59.3814 225.995 59.4819C226.2 59.5824 226.383 59.7304 226.53 59.9155C226.678 60.1007 226.788 60.3187 226.851 60.5546C226.914 60.7904 226.93 61.0384 226.897 61.2816L224.856 76.726C224.64 78.2374 225.191 79.2764 226.508 79.8432C235.451 83.5744 244.393 87.1285 253.336 90.5055C261.727 93.6935 269.892 93.0205 278.672 94.0124C280.336 94.2013 281.264 93.3984 281.459 91.6036L282.074 85.6526C282.153 84.9888 282.449 84.3788 282.908 83.9357C283.367 83.4927 283.957 83.2469 284.569 83.2438H295.78C296.432 83.2424 297.064 83.4946 297.563 83.9552C298.061 84.4158 298.394 85.055 298.501 85.7588L299.408 91.9224C299.646 93.481 300.488 94.3075 301.936 94.402L348.3 97.8026C348.882 97.8385 349.43 98.1144 349.832 98.5746C350.235 99.0349 350.464 99.6452 350.471 100.282L350.86 117.143C350.881 118.466 351.497 119.104 352.706 119.056C362.124 118.82 368.366 123.791 371.434 133.969C371.74 134.978 371.799 136.056 371.604 137.097C371.409 138.138 370.967 139.106 370.322 139.904C369.677 140.702 368.851 141.304 367.926 141.648C367.002 141.993 366.01 142.069 365.051 141.869C343.246 137.264 351.475 169.605 345.967 180.338C342.144 187.824 337.727 194.861 332.716 201.45C332.046 202.347 331.193 202.702 330.156 202.513L311.105 199.041Z" fill="#D6B401"/>
<path d="M401.112 158.907C407.052 155.648 411.167 157.006 413.456 162.981C414.083 164.587 415.13 165.673 416.599 166.24C424.526 169.38 432.616 169.569 440.867 166.806C442.778 166.168 444.835 166.299 446.661 167.177C448.488 168.055 449.961 169.621 450.814 171.588C454.421 179.948 460.652 183.491 469.508 182.215C470.082 182.13 470.667 182.224 471.2 182.487C471.732 182.75 472.19 183.171 472.522 183.703L477.997 192.736C478.229 193.129 478.568 193.437 478.969 193.621C488.333 197.624 496.174 188.025 503.885 194.684C504.369 195.093 504.762 195.622 505.031 196.23C505.301 196.838 505.441 197.509 505.44 198.191V232.764C505.442 233.53 505.29 234.288 504.994 234.982C504.698 235.677 504.265 236.291 503.726 236.782C503.188 237.272 502.557 237.627 501.879 237.82C501.2 238.014 500.491 238.041 499.802 237.9L344.477 205.949C344.089 205.868 343.724 205.688 343.412 205.424C343.1 205.159 342.85 204.818 342.683 204.427C342.515 204.036 342.435 203.608 342.448 203.176C342.461 202.745 342.568 202.323 342.76 201.946C350.363 186.927 353.765 170.738 352.966 153.381C352.941 152.839 353.095 152.306 353.399 151.882C353.703 151.458 354.137 151.172 354.618 151.079C366.865 148.457 378.983 147.336 390.971 147.713C394.016 147.808 396.166 148.646 397.418 150.228C398.801 151.952 399.33 154.302 399.006 157.278C398.971 157.565 399.009 157.858 399.115 158.124C399.222 158.39 399.393 158.619 399.609 158.787C399.826 158.955 400.081 159.055 400.345 159.076C400.61 159.097 400.875 159.039 401.112 158.907Z" fill="#7D5C6F"/>
<path d="M119.232 163.937L226.768 183.313H222.07C218.635 183.29 218.603 183.597 221.972 184.234L310.943 201.131C316.429 201.367 320.63 202.938 323.546 205.842C323.945 206.246 324.263 206.731 324.481 207.267C324.698 207.804 324.81 208.38 324.81 208.96V264.786C324.819 265.348 325.02 265.89 325.373 266.304C325.726 266.718 326.206 266.975 326.718 267.023C327.229 267.072 327.736 266.91 328.139 266.568C328.541 266.226 328.81 265.729 328.892 265.176C328.936 264.916 328.979 264.538 329.022 264.042C329.821 265.128 331.884 265.955 335.21 266.522C334.022 267.207 334.865 269.226 337.738 272.579L320.306 293.018C318.276 291.955 316.17 293.691 313.988 298.225C301.892 297.517 292.27 297.292 285.12 297.552C283.565 297.599 281.966 298.509 280.325 300.28C277.063 300.303 274.622 302.677 273.002 307.4C265.777 308.533 251.845 327.414 247.115 334.038L197.316 384.055C192.478 391.352 189.68 401.613 188.924 414.837C188.841 416.064 188.33 417.206 187.499 418.025C184.302 421.213 180.911 422.288 177.325 421.249C161.384 416.608 165.37 369.638 165.337 356.744C165.337 355.398 164.83 354.335 163.814 353.556L125.68 324.722C125.221 324.369 124.681 324.159 124.116 324.116C123.552 324.072 122.983 324.196 122.472 324.474L113.821 329.22C113.309 329.499 112.73 329.594 112.166 329.492C111.602 329.39 111.081 329.097 110.678 328.653L88.8408 304.778C87.7321 303.567 86.8725 302.111 86.3195 300.508C85.7665 298.905 85.5328 297.191 85.634 295.481C85.7352 293.771 86.169 292.104 86.9064 290.592C87.6437 289.08 88.6678 287.758 89.91 286.713L123.217 258.764C124.189 257.938 125.291 257.536 126.522 257.56L180.63 258.87C181.35 258.89 182.057 258.671 182.66 258.243C183.263 257.814 183.735 257.196 184.014 256.468C184.293 255.739 184.367 254.934 184.225 254.157C184.084 253.379 183.735 252.664 183.222 252.105C176.288 244.63 170.78 240.982 160.412 240.84C142.614 240.533 124.826 240.014 107.05 239.282C105.991 239.234 105.095 238.774 104.36 237.9L88.614 219.161C87.858 218.264 87.4692 217.201 87.4476 215.973L86.67 169.321C86.657 168.607 86.775 167.897 87.0171 167.234C87.2592 166.57 87.6204 165.966 88.0794 165.458C88.5385 164.949 89.0861 164.546 89.6898 164.273C90.2936 164 90.9413 163.861 91.5948 163.866L119.232 163.937Z" fill="#A1AFD6"/>
<path d="M562.172 230.213C562.993 231.725 564.095 232.374 565.477 232.162C572.26 231.193 579.366 230.662 586.796 230.568C588.006 230.568 588.632 231.217 588.676 232.516L589.388 251.219C589.216 256.745 591.43 261.574 596.03 265.707C596.851 266.439 597.704 266.475 598.59 265.813C600.361 264.514 600.512 263.157 599.044 261.74L599.432 236.731L604.843 232.126C605.354 231.707 605.931 231.428 606.528 231.311C610.049 230.579 612.695 229.021 614.466 226.636C616.777 225.667 617.641 225.006 617.058 224.652L639.414 237.723C640.58 238.408 641.164 239.471 641.164 240.911L641.261 257.347C641.282 258.599 640.85 259.638 639.965 260.464L604.26 294.116C603.743 294.596 603.1 294.882 602.423 294.933C601.747 294.984 601.074 294.797 600.502 294.4L533.045 246.614C532.581 246.289 532.049 246.1 531.499 246.062C530.949 246.025 530.399 246.142 529.902 246.402L514.026 254.832C513.632 255.042 513.195 255.137 512.758 255.109C512.32 255.081 511.895 254.931 511.523 254.672C511.151 254.414 510.844 254.056 510.63 253.632C510.416 253.208 510.302 252.731 510.3 252.246V202.761C510.3 202.359 510.403 201.965 510.599 201.625C510.794 201.285 511.074 201.012 511.407 200.835C511.74 200.659 512.113 200.586 512.484 200.626C512.855 200.666 513.21 200.816 513.508 201.06L534.341 218.595C535.139 219.261 536.118 219.622 537.127 219.622H555.692C556.247 219.621 556.786 219.836 557.217 220.23C557.648 220.624 557.945 221.172 558.058 221.783L559.483 229.824C559.678 230.91 560.239 231.264 561.168 230.886C561.492 230.745 561.827 230.52 562.172 230.213Z" fill="#A1AFD6"/>
<path d="M617.02 222.629C617.603 222.983 616.739 223.644 614.428 224.612C608.79 226.076 603.974 228.391 599.978 231.555C599.394 232.027 599.2 233.078 599.394 234.708L599.005 259.716C596.716 261.96 595.236 262.338 594.567 260.85C592.925 257.142 591.186 253.258 589.35 249.196L588.638 230.492C588.594 229.194 587.968 228.544 586.758 228.544C579.328 228.639 572.221 229.17 565.439 230.138C564.057 230.351 562.955 229.701 562.134 228.19L562.231 204.032C562.253 202.449 562.977 201.658 564.402 201.658H613.488C615 201.658 615.81 202.485 615.918 204.138L617.02 222.629Z" fill="#A1AFD6"/>
<path d="M335.21 266.522C331.884 265.955 329.821 265.129 329.022 264.042L329.054 212.785C329.054 211.156 329.789 210.459 331.258 210.695L426.449 226.281C427.81 226.494 428.49 227.356 428.49 228.867V260.287C428.491 261.309 428.246 262.31 427.778 263.188C427.311 264.066 426.64 264.789 425.833 265.282L378.788 294.506C377.773 295.12 376.812 295.037 375.905 294.258C363.042 283.277 352.318 267.939 335.21 266.522Z" fill="#A5B092"/>
<path d="M699.095 271.871H721.872C723.082 271.871 723.773 271.209 723.946 269.887L724.432 265.955C724.513 265.33 724.806 264.761 725.252 264.366C725.697 263.971 726.261 263.779 726.829 263.83L771.282 267.939C772.448 268.033 773.464 268.517 774.328 269.391L797.008 292.203C797.487 292.676 797.787 293.331 797.846 294.038C797.906 294.746 797.723 295.456 797.332 296.029L783.756 315.866C783.505 316.23 783.181 316.525 782.81 316.728C782.439 316.931 782.031 317.036 781.618 317.035H746.107C745.027 317.035 744.444 317.613 744.358 318.771C741.312 358.267 680.821 319.054 684.936 354.229C684.992 354.741 684.904 355.262 684.685 355.722C684.466 356.183 684.124 356.564 683.705 356.815C679.644 359.129 676.987 358.22 675.734 354.087C675.389 352.954 675.356 350.663 675.637 347.215C675.724 345.94 675.313 344.924 674.406 344.169L618.062 296.844C614.93 294.222 614.887 291.53 617.933 288.767L643.496 265.636C644.382 264.81 644.89 263.771 645.019 262.519L646.801 244.63C646.909 243.45 647.384 242.505 648.227 241.797C664.038 228.123 690.898 221.818 706.126 239.884C707.227 241.183 706.979 242.009 705.38 242.363L691.643 245.41C691.397 245.466 691.173 245.601 690.998 245.798C690.823 245.994 690.705 246.243 690.66 246.513C690.615 246.782 690.644 247.061 690.744 247.312C690.844 247.564 691.01 247.777 691.222 247.925L695.887 251.219C696.708 251.809 697.14 252.648 697.183 253.734L697.54 270.17C697.561 271.304 698.08 271.871 699.095 271.871Z" fill="#B95A0A"/>
<path d="M383.227 295.852L432.734 265.069C433.096 264.845 433.397 264.521 433.608 264.129C433.818 263.738 433.93 263.292 433.933 262.838L434.29 233.543C434.295 233.174 434.373 232.811 434.517 232.477C434.662 232.144 434.87 231.848 435.128 231.609C435.386 231.371 435.687 231.196 436.012 231.096C436.337 230.995 436.678 230.972 437.011 231.028L503.334 241.797C503.898 241.891 504.411 242.204 504.781 242.679C505.15 243.154 505.349 243.759 505.343 244.382L504.76 284.8C504.752 285.235 504.645 285.662 504.446 286.04C504.248 286.417 503.966 286.734 503.626 286.961L424.699 340.131C424.258 340.426 423.739 340.555 423.224 340.497C422.709 340.439 422.226 340.199 421.848 339.812L382.806 299.996C382.533 299.722 382.322 299.38 382.192 299C382.062 298.62 382.015 298.211 382.056 297.808C382.097 297.404 382.225 297.017 382.428 296.677C382.632 296.337 382.905 296.054 383.227 295.852Z" fill="#51580A"/>
<path d="M600.858 303.574L577.724 334.038C576.191 333.518 575.014 334.014 574.193 335.526C573.653 336.517 573.48 337.238 573.674 337.686C573.809 338.025 573.828 338.405 573.73 338.759C573.632 339.112 573.422 339.416 573.138 339.616C572.854 339.815 572.514 339.899 572.179 339.85C571.844 339.802 571.536 339.625 571.309 339.351C562.172 328.701 553.068 318.9 543.996 309.95C534.956 301.059 527.342 287.74 512.374 281.931C511.099 281.435 510.473 280.443 510.494 278.955L510.592 263.44C510.613 262.141 511.088 261.078 512.017 260.252C522.742 250.688 532.04 251.715 543.899 259.579C556.794 268.116 595.836 289.582 600.858 303.574Z" fill="#333300"/>
<path d="M865.89 308.108L866.538 276.299L866.797 264.007C866.84 262.637 867.478 261.799 868.709 261.492C881.69 258.375 894.823 257.135 908.107 257.772C908.749 257.8 909.355 258.097 909.797 258.6C910.239 259.103 910.481 259.772 910.472 260.464L910.343 316.751C910.343 321.191 908.302 323.423 904.219 323.446L869.389 323.659C867.769 323.683 866.894 322.809 866.765 321.038L865.89 308.108Z" fill="#7D5C6F"/>
<path d="M336.443 274.886C337.091 275.807 338.041 276.327 339.294 276.445C340.395 276.563 341.378 277 342.242 277.755L416.989 342.65C420.056 345.295 419.927 347.751 416.6 350.018L343.635 399.61C340.957 401.452 338.376 401.287 335.892 399.114L325.621 390.152C325.077 389.681 324.385 389.462 323.695 389.542C323.005 389.621 322.37 389.993 321.927 390.577L254.114 480.091C253.968 480.28 253.863 480.504 253.808 480.744C253.753 480.985 253.749 481.236 253.795 481.478C253.842 481.721 253.939 481.948 254.079 482.144C254.218 482.339 254.396 482.497 254.6 482.606C260.519 485.818 262.149 490.718 259.493 497.306C259.222 497.998 258.778 498.593 258.211 499.025C257.645 499.457 256.977 499.708 256.285 499.751C248.984 500.199 244.005 503.966 241.349 511.05C240.946 512.067 240.219 512.889 239.303 513.363C238.387 513.838 237.344 513.932 236.37 513.629C235.395 513.325 234.554 512.645 234.004 511.715C233.454 510.784 233.231 509.667 233.378 508.571L236.715 486.786C236.799 486.245 236.697 485.688 236.429 485.219C236.16 484.75 235.744 484.4 235.257 484.235L228.745 482.004C228.339 481.87 227.965 481.642 227.652 481.336C227.338 481.03 227.092 480.653 226.931 480.233L215.655 452.107C215.434 451.553 215.33 450.953 215.352 450.351C215.375 449.749 215.523 449.163 215.785 448.635C219.068 442.047 220.818 434.986 221.034 427.452C221.054 426.869 221.211 426.304 221.489 425.813C221.768 425.322 222.159 424.922 222.621 424.654L226.509 422.352C226.807 422.176 227.062 421.926 227.254 421.621C227.446 421.317 227.569 420.967 227.613 420.601C227.657 420.234 227.621 419.862 227.508 419.513C227.395 419.165 227.209 418.851 226.963 418.597L219.543 410.945C218.507 409.859 217.34 409.647 216.044 410.308C209.132 413.756 201.983 414.877 194.595 413.673C193.515 413.508 192.911 412.823 192.781 411.618C191.636 401.818 192.716 393.399 196.021 386.362L245.82 336.345L271.707 309.707C275.271 307.936 277.712 305.562 279.03 302.587C280.671 300.816 282.27 299.906 283.825 299.859C290.975 299.599 300.597 299.824 312.693 300.532C315.329 299.564 317.435 297.828 319.011 295.325L336.443 274.886Z" fill="#B95A0A"/>
<path d="M865.048 277.397L865.015 308.392C858.665 312.477 851.364 312.879 843.113 309.596C842.611 309.404 842.074 309.358 841.556 309.464C841.038 309.57 840.558 309.823 840.164 310.198C836.644 313.457 834.71 317.613 834.365 322.667C834.329 323.184 834.398 323.703 834.567 324.187C834.736 324.672 835.002 325.11 835.345 325.472C835.688 325.833 836.1 326.109 836.552 326.279C837.004 326.449 837.485 326.51 837.961 326.457L854.356 324.615C854.733 324.57 855.117 324.613 855.485 324.741C855.853 324.869 856.196 325.079 856.494 325.359C870.815 338.891 883.289 331.416 899.068 333.365C899.631 333.427 900.164 333.673 900.597 334.071C901.031 334.469 901.344 335.001 901.498 335.596C903.118 341.902 902.912 348.089 900.882 354.158C900.691 354.722 900.388 355.233 899.997 355.656C899.605 356.078 899.133 356.401 898.614 356.602C887.728 360.817 890.644 379.556 888.894 390.148C888.656 391.659 887.836 392.32 886.432 392.131L858.017 387.987C857.642 387.941 857.26 388.055 856.948 388.306C848.934 395.532 845.111 404.801 845.478 416.113C845.521 417.931 844.722 418.734 843.08 418.521L804.784 413.775C803.639 413.633 802.742 414.07 802.094 415.085L797.429 422.276C796.694 423.41 795.766 423.658 794.642 423.02L773.777 410.905C773.131 410.541 772.634 409.922 772.384 409.17L770.245 402.581C769.856 401.306 769.046 400.597 767.815 400.456C754.207 398.779 744.682 397.976 739.238 398.047C734.422 398.118 731.873 395.591 731.592 390.466C732.694 383.405 731.808 380.265 728.935 381.044L703.76 378.883C696.406 370.63 680.335 357.381 694.073 345.763C701.978 339.103 723.395 342.929 733.244 343.673C734.117 343.765 735.009 343.474 735.739 342.858L746.399 333.931C747.22 333.247 747.738 332.337 747.954 331.204L749.412 323.553C749.53 322.962 749.829 322.433 750.259 322.053C750.689 321.673 751.224 321.465 751.777 321.463H782.266C784.728 321.463 786.596 320.305 787.871 317.991L798.304 298.721C798.908 297.635 799.794 297.044 800.96 296.95L824.774 294.683C825.919 294.588 826.621 293.927 826.88 292.699L828.824 283.525C828.945 282.946 829.244 282.431 829.67 282.068C830.096 281.706 830.622 281.52 831.157 281.541C835.283 281.683 837.842 279.687 838.836 275.555C839.012 274.808 839.413 274.149 839.972 273.685C840.531 273.222 841.216 272.982 841.914 273.004L861.289 273.358C862.24 273.382 862.963 273.819 863.46 274.669L865.048 277.397Z" fill="#7D5C6F"/>
<path d="M517.687 289.511L584.852 358.763C586.122 360.073 587.133 361.657 587.824 363.418C588.514 365.178 588.871 367.078 588.87 369V436.587C588.873 437.076 588.756 437.556 588.531 437.979C588.306 438.402 587.981 438.751 587.589 438.993C587.197 439.234 586.752 439.358 586.3 439.352C585.848 439.347 585.404 439.211 585.014 438.96C575.64 432.939 566.438 426.586 557.41 419.903C551.448 415.51 549.893 409.984 547.301 403.219C547.003 402.447 546.459 401.821 545.771 401.461C545.084 401.102 544.302 401.034 543.575 401.27L518.368 409.347C517.284 409.688 516.118 409.575 515.095 409.028C504.49 403.384 493.96 397.752 483.505 392.131C472.295 386.074 466.042 376.297 457.909 366.627C457.221 365.809 456.842 364.737 456.848 363.627C456.854 362.516 457.245 361.449 457.942 360.64L476.928 338.537C477.243 338.183 477.468 337.748 477.582 337.276C477.696 336.803 477.693 336.31 477.576 335.844L474.044 320.967C473.703 319.569 473.777 318.088 474.254 316.739C474.732 315.39 475.588 314.24 476.701 313.457L511.304 288.874C512.276 288.185 513.433 287.873 514.589 287.989C515.746 288.104 516.837 288.64 517.687 289.511Z" fill="#993399"/>
<path d="M640.904 326.953C640.127 327.142 639.49 327.874 638.993 329.149L612.911 356.567C612.112 357.393 611.69 358.409 611.647 359.613C610.967 375.695 611.68 395.001 600.34 407.222C597.013 410.787 595.188 410.032 594.864 404.954L592.207 365.706C592.121 364.502 591.721 363.451 591.008 362.553C585.792 356 571.633 343.071 577.724 334.038L600.858 303.574L606.917 297.517C607.802 296.643 608.688 296.631 609.574 297.481L640.904 326.953Z" fill="#D6B401"/>
<path d="M471.323 394.576L462.575 398.649C443.005 412.11 396.349 442.396 401.274 462.446C403.736 472.577 410.184 475.871 402.991 487.242C402.459 488.103 402.126 489.087 402.019 490.111C401.371 496.227 403.369 500.561 408.013 503.111C408.483 503.376 408.848 503.817 409.034 504.349C409.22 504.881 409.214 505.463 409.018 505.981C405.518 515.474 399.46 515.297 392.494 518.414C391.327 518.934 390.668 519.878 390.517 521.248L388.476 540.128C388.398 540.785 388.152 541.402 387.767 541.904C387.382 542.407 386.874 542.775 386.305 542.962C377.579 545.914 370.57 551.31 365.278 559.15C364.673 560.063 363.799 560.704 362.815 560.957C350.989 564.074 347.101 551.393 342.209 543.068C341.582 542.029 340.729 541.321 339.649 540.943C333.256 538.747 328.223 540.518 324.551 546.256C323.924 547.248 323.082 547.933 322.024 548.311C314.01 551.263 307.681 549.515 303.037 543.068C302.108 541.769 300.899 541.037 299.408 540.872C291.481 539.927 287.323 534.85 286.934 525.64C286.87 524.389 286.297 523.527 285.217 523.054C277.808 519.961 275.778 514.01 279.126 505.201C279.256 504.865 279.317 504.501 279.304 504.135C279.291 503.77 279.204 503.411 279.05 503.084C278.895 502.757 278.677 502.47 278.411 502.242C278.144 502.014 277.836 501.851 277.506 501.765L268.045 499.286C267.481 499.141 266.987 498.769 266.662 498.244C266.338 497.718 266.207 497.078 266.296 496.452C267.181 490.524 266.652 484.821 264.708 479.343C264.323 478.264 264.201 477.095 264.355 475.952C264.508 474.809 264.932 473.731 265.583 472.825L320.566 396.701C320.937 396.186 321.401 395.76 321.929 395.447C322.458 395.135 323.039 394.943 323.639 394.884C324.238 394.824 324.843 394.898 325.418 395.101C325.992 395.303 326.524 395.631 326.981 396.063L336.02 404.707C337.057 405.698 338.159 405.793 339.325 404.99C378.14 378.376 417.128 352.186 456.289 326.422C459.184 324.509 462.218 322.856 465.394 321.463C466.884 320.802 467.986 321.262 468.698 322.844L473.332 333.365C473.629 334.021 473.715 334.769 473.573 335.488C473.432 336.208 473.073 336.858 472.554 337.332L445.338 362.305C444.474 363.108 444.431 363.97 445.208 364.891L471.323 394.576Z" fill="#E5A98E"/>
<path d="M640.904 326.953C649.177 330.897 657.461 335.703 665.755 341.37C673.337 346.578 674.568 352.033 672.883 361.172C672.827 361.474 672.83 361.785 672.892 362.086C672.953 362.386 673.072 362.669 673.24 362.916C673.408 363.164 673.622 363.369 673.867 363.52C674.113 363.671 674.385 363.764 674.665 363.793C685.249 364.808 693.533 370.051 699.516 379.521C700.078 380.418 700.855 380.855 701.849 380.831C702.864 380.808 703.501 380.158 703.76 378.883L728.935 381.044C730.361 384.492 730.912 387.916 730.588 391.317C729.875 395.567 728.514 397.799 724.205 397.657C715.154 397.445 706.028 397.468 696.827 397.728C695.725 397.775 694.753 398.189 693.911 398.968L670.777 420.293C669.827 418.214 668.153 417.022 665.755 416.715C663.811 413.314 661.208 411.177 657.947 410.303C656.932 410.02 655.938 410.114 654.966 410.587L623.603 426.102C622.307 426.74 621.346 426.373 620.719 425.004L615.632 414.058L612.133 405.663L614.272 359.082C614.336 357.736 614.822 356.602 615.73 355.681L639.673 330.637C639.932 330.354 639.954 330.059 639.738 329.752C639.565 329.515 639.317 329.315 638.993 329.149C639.49 327.874 640.127 327.142 640.904 326.953Z" fill="#006666"/>
<path d="M471.323 394.576L514.026 414.448C515.131 414.951 516.373 415.001 517.525 414.589L540.821 405.946C541.102 405.846 541.399 405.806 541.693 405.83C541.988 405.854 542.275 405.941 542.537 406.086C542.799 406.231 543.032 406.431 543.221 406.675C543.41 406.918 543.552 407.201 543.64 407.505C545.26 413.137 546.264 417.105 551.189 420.328C562.939 428.121 574.603 435.997 586.181 443.955C592.596 448.347 589.518 458.903 589.712 463.863C589.928 468.704 590.22 473.604 590.587 478.563C590.628 479.182 590.528 479.8 590.296 480.363C590.064 480.926 589.707 481.416 589.259 481.787C572.26 495.743 564.494 514.541 565.963 538.18C566.028 539.148 566.384 539.975 567.032 540.66L572.216 546.15L572.119 550.755C571.687 555.596 570.046 558.938 567.194 560.78C555.358 568.384 546.113 576.271 539.46 584.442C540.518 587.796 540.734 591.208 540.108 594.679L542.052 603.819C539.914 606.416 537.797 608.152 535.702 609.026C535.227 609.225 534.711 609.271 534.217 609.158C533.722 609.045 533.27 608.777 532.915 608.388L525.528 600.312L524.135 578.456C525.409 576.047 526.576 574.536 527.634 573.922C528.495 573.422 529.152 572.61 529.489 571.628C529.827 570.646 529.823 569.556 529.479 568.55C529.135 567.544 528.472 566.686 527.608 566.127C526.743 565.567 525.731 565.342 524.75 565.491C512.417 567.333 504.392 561.913 500.677 549.232C500.549 548.807 500.338 548.418 500.059 548.092C499.78 547.766 499.44 547.512 499.062 547.346C498.685 547.18 498.28 547.108 497.876 547.134C497.472 547.16 497.079 547.283 496.724 547.496L466.981 565.456C466.553 565.707 466.056 565.777 465.584 565.653C465.112 565.529 464.698 565.219 464.422 564.783C461.678 560.39 457.942 557.45 453.211 555.962C452.798 555.831 452.427 555.577 452.138 555.229C451.848 554.881 451.653 554.453 451.572 553.991C451.492 553.529 451.53 553.052 451.682 552.612C451.834 552.172 452.094 551.787 452.434 551.499L467.046 539.278C467.888 538.593 468.04 537.755 467.5 536.763L459.076 521.496C458.363 520.221 458.503 519.063 459.497 518.024L472.23 504.882C473.116 503.961 473.623 502.851 473.753 501.553C474.941 489.414 472.543 478.185 466.56 467.865C466.275 467.375 465.862 466.99 465.376 466.762C464.889 466.535 464.353 466.475 463.838 466.59C457.834 467.889 453.708 465.622 451.462 459.789C451.214 459.137 450.772 458.597 450.207 458.256C449.642 457.915 448.988 457.794 448.351 457.912L437.562 459.931C436.05 460.214 434.711 459.801 433.544 458.691L417.863 443.565C417.331 443.05 416.91 442.413 416.631 441.698C416.352 440.984 416.222 440.21 416.25 439.434C416.278 438.658 416.463 437.898 416.792 437.209C417.122 436.521 417.587 435.921 418.154 435.454L462.575 398.649L471.323 394.576Z" fill="#FF9900"/>
<path d="M754.888 407.151C742.554 408.19 734.432 411.519 730.523 417.14C727.088 421.674 726.181 424.036 727.801 424.224L667.57 458.62C650.376 466.153 633.766 475.328 617.739 486.144C616.788 486.026 615.73 486.392 614.563 487.242C614.144 487.547 613.8 487.962 613.563 488.45C613.325 488.938 613.201 489.485 613.202 490.04L613.17 513.278C613.163 513.892 612.944 514.48 612.558 514.922C612.173 515.363 611.65 515.624 611.096 515.651L593.309 516.536C592.056 516.607 591.408 515.946 591.365 514.553C591.106 507.633 591.365 498.766 592.142 487.95C593.017 475.765 589.486 429.963 596.192 419.442C599.972 413.539 605.286 408.945 612.133 405.663L615.632 414.058C613.408 415.026 613.235 417.612 615.114 421.816C621.4 435.879 645.44 419.974 654.772 415.652C655.808 415.18 656.856 415.144 657.914 415.546C660.722 416.585 663.336 416.975 665.755 416.715C668.153 417.022 669.827 418.214 670.777 420.292L697.248 402.829C698.098 402.272 699.058 401.967 700.034 401.943C718.351 401.4 736.636 403.136 754.888 407.151Z" fill="#003366"/>
<path d="M618.127 487.702L667.57 458.62L727.801 424.224C730.048 423.54 730.955 421.178 730.523 417.14C734.432 411.519 742.554 408.19 754.888 407.151C757.652 405.852 759.931 405.439 761.724 405.911C762.983 406.221 764.139 406.906 765.064 407.89C765.989 408.874 766.647 410.119 766.966 411.486C767.284 412.854 767.251 414.291 766.869 415.638C766.487 416.986 765.772 418.192 764.802 419.124C759.586 424.154 736.906 436.835 749.509 446.045C757.739 452.09 766.746 459.092 776.531 467.051C776.985 467.421 777.349 467.907 777.592 468.467C777.834 469.026 777.948 469.642 777.922 470.261C777.897 470.879 777.733 471.482 777.445 472.015C777.157 472.549 776.754 472.997 776.272 473.321C771.066 476.816 770.936 480.57 775.883 484.585C776.17 484.813 776.412 485.103 776.593 485.438C776.774 485.773 776.891 486.145 776.936 486.533C776.981 486.92 776.955 487.315 776.857 487.692C776.76 488.07 776.593 488.423 776.369 488.73L764.575 504.882C764.163 505.45 763.606 505.874 762.973 506.1C762.339 506.327 761.658 506.347 761.011 506.158C754.704 504.221 749.779 505.933 746.237 511.294C745.965 511.713 745.607 512.059 745.191 512.305C744.776 512.55 744.313 512.689 743.839 512.711L739.886 512.853C739.627 512.863 739.377 512.958 739.167 513.125C738.958 513.293 738.799 513.525 738.712 513.792C738.625 514.059 738.613 514.349 738.678 514.623C738.743 514.898 738.882 515.145 739.076 515.332C744.671 520.882 744.52 525.994 738.623 530.67C738.235 530.987 737.778 531.194 737.293 531.274C736.807 531.355 736.307 531.305 735.836 531.131C728.708 528.462 722.671 529.714 717.725 534.886C716.515 536.161 715.349 536.114 714.226 534.744L697.378 514.057C697.185 513.817 697.042 513.535 696.958 513.23C696.874 512.925 696.851 512.604 696.891 512.291C696.931 511.977 697.033 511.678 697.19 511.414C697.347 511.15 697.554 510.928 697.799 510.763C701.579 508.189 702.864 504.233 701.654 498.896C701.343 497.506 700.623 496.267 699.603 495.37C698.584 494.472 697.323 493.966 696.015 493.93C694.707 493.894 693.424 494.329 692.364 495.169C691.305 496.009 690.528 497.206 690.152 498.577C688.295 505.402 684.245 507.941 678.002 506.193C670.324 504.032 668.218 493.83 657.104 499.463C656.556 499.735 656.084 500.162 655.738 500.702C655.392 501.241 655.184 501.872 655.134 502.531C655.085 503.19 655.196 503.854 655.457 504.453C655.718 505.053 656.119 505.568 656.618 505.945L665.69 512.746C666.249 513.17 666.703 513.737 667.014 514.398C667.325 515.059 667.482 515.793 667.472 516.537C667.3 526.691 669.438 536.137 673.888 544.875C674.12 545.341 674.205 545.876 674.129 546.396C674.052 546.916 673.819 547.391 673.466 547.744L665.14 556.281C664.042 557.399 662.623 558.179 661.101 558.5C659.579 558.822 658.036 558.668 656.707 558.062C655.379 557.456 654.337 556.432 653.742 555.145C653.147 553.857 653.031 552.378 653.411 550.932C653.648 549.964 653.53 549.149 653.054 548.488C652.601 547.827 652.147 547.815 651.694 548.453L645.926 556.564C645.106 557.674 644.101 557.946 642.913 557.379C633.452 552.774 623.57 551.747 613.267 554.297C612.392 554.511 611.569 554.929 610.855 555.522C610.14 556.116 609.551 556.872 609.127 557.739C608.703 558.606 608.454 559.564 608.397 560.547C608.34 561.53 608.476 562.515 608.796 563.436C611.712 571.796 610.276 579.4 604.487 586.249C604.164 586.626 603.739 586.878 603.277 586.967C602.815 587.057 602.341 586.979 601.927 586.745L591.235 580.829C590.785 580.574 590.406 580.19 590.138 579.716C589.87 579.242 589.723 578.697 589.712 578.137L589.453 524.755C589.451 523.858 589.759 522.994 590.317 522.331C590.875 521.669 591.642 521.257 592.466 521.177L613.688 519.052C614.747 518.933 615.308 518.296 615.373 517.139C615.859 508.283 613.656 493.547 618.127 487.702ZM734.832 508.425C733.45 506.11 731.527 505.26 729.065 505.874C728.708 505.962 728.39 506.183 728.164 506.498C727.939 506.813 727.82 507.203 727.827 507.603C727.835 508.003 727.969 508.388 728.206 508.693C728.443 508.997 728.77 509.203 729.13 509.275L733.666 510.267C733.882 510.308 734.106 510.28 734.31 510.187C734.514 510.095 734.688 509.941 734.812 509.746C734.936 509.55 735.004 509.321 735.007 509.086C735.011 508.852 734.95 508.622 734.832 508.425Z" fill="#51580A"/>
<path d="M524.135 578.456L525.528 600.312C520.992 612.816 536.382 617.173 542.052 603.819C546.026 600.465 545.378 597.419 540.108 594.679C540.734 591.208 540.518 587.796 539.46 584.442C550.174 577.948 560.066 570.922 569.138 563.366C573.35 559.859 573.61 555.891 572.119 550.755L572.216 546.15C573.167 544.284 573.599 541.97 573.512 539.207C573.469 538.028 573.108 536.894 572.476 535.948C562.626 521.106 574.938 500.242 585.662 490.501C586.937 489.344 587.531 489.662 587.444 491.457C585.889 527.234 581.029 574.205 590.782 588.835C591.035 589.212 591.207 589.647 591.285 590.106C591.364 590.566 591.347 591.04 591.235 591.491L577.336 650.045C577.066 651.187 576.453 652.196 575.595 652.909C574.736 653.622 573.683 653.999 572.605 653.977L504.598 652.525C503.543 652.505 502.526 652.09 501.718 651.348C500.91 650.607 500.359 649.584 500.159 648.451L494.845 619.723C494.77 619.284 494.6 618.871 494.349 618.518C494.098 618.165 493.773 617.884 493.402 617.696C493.031 617.509 492.624 617.422 492.215 617.442C491.807 617.461 491.409 617.588 491.054 617.811L471.42 630.102C470.232 630.858 469.541 630.492 469.346 629.004L467.921 618.448C467.833 617.854 467.902 617.245 468.12 616.693C468.338 616.14 468.696 615.668 469.152 615.331L488.009 601.41C488.565 600.991 488.981 600.386 489.192 599.688C489.403 598.99 489.397 598.239 489.175 597.549L482.404 576.791C482.264 576.38 482.213 575.939 482.255 575.502C482.297 575.066 482.431 574.645 482.647 574.272C482.863 573.899 483.155 573.584 483.5 573.351C483.846 573.119 484.235 572.975 484.639 572.93L518.335 569.387C519.005 569.321 519.68 569.434 520.3 569.718C520.92 570.003 521.466 570.448 521.889 571.016C522.312 571.584 522.6 572.257 522.726 572.974C522.852 573.691 522.813 574.43 522.612 575.126C522.137 576.826 522.644 577.936 524.135 578.456Z" fill="#98A5C9"/>
</svg>
